<svg width="82" height="81" viewBox="0 0 82 81" fill="none" xmlns="http://www.w3.org/2000/svg">
<path d="M43.3542 50.652C49.9347 50.3182 55.9633 50.167 56.9353 50.7119C57.436 50.9934 58.215 54.6933 58.5729 57.1677C60.5941 56.9264 63.1341 56.7044 65.6717 56.5315C65.2949 54.6277 65.0625 53.4349 64.2075 51.5955C64.078 51.3168 64.4327 51.2042 64.5771 51.4587C65.4338 53.027 66.0091 54.7333 66.277 56.5001C69.7126 56.2745 73.1023 56.1382 75.2269 56.1382C74.9856 54.0591 73.6492 49.2678 71.2536 46.811C69.4069 44.9173 65.8245 43.2319 62.654 42.8329C62.6046 43.2724 62.4351 43.6897 62.1641 44.039C61.8931 44.3884 61.5311 44.6564 61.1177 44.8136C59.4239 45.4791 56.3321 45.6541 53.5741 44.1391C50.6646 44.9692 45.3324 48.1357 43.3542 50.652Z" fill="#38A1FF"/>
<path d="M78.8234 65.4505C61.4733 65.7766 44.2016 65.7123 26.8607 65.732C26.5101 65.732 26.4308 66.2801 26.7936 66.2866C44.0954 66.6063 61.6036 66.2299 78.9026 66.0179C79.2722 66.0147 79.191 65.4437 78.8234 65.4505Z" fill="#38A1FF"/>
<path d="M36.1038 31.1697C37.885 31.2031 46.5654 31.0414 47.4884 31.0016C47.7667 30.9895 47.7594 30.5094 47.4884 30.5094C46.2493 30.5094 38.0977 30.6666 36.1038 30.7712C36.0556 30.7777 36.0114 30.8015 35.9793 30.8381C35.9473 30.8748 35.9297 30.9218 35.9297 30.9704C35.9297 31.0191 35.9473 31.0661 35.9793 31.1028C36.0114 31.1394 36.0556 31.1632 36.1038 31.1697Z" fill="#38A1FF"/>
<path d="M28.9941 28.9462C28.8646 29.0137 26.6251 31.7058 27.657 31.3857C27.8034 31.3402 29.2656 29.4875 29.3376 29.1553C29.3462 29.1123 29.3414 29.0676 29.3238 29.0274C29.3062 28.9872 29.2766 28.9533 29.2391 28.9305C29.2016 28.9077 29.158 28.8969 29.1141 28.8997C29.0703 28.9025 29.0284 28.9188 28.9941 28.9462Z" fill="#38A1FF"/>
<path d="M24.1141 22.8307C24.8344 22.8645 39.5005 22.8279 40.3748 22.7418C40.4989 22.7253 40.6126 22.6634 40.6936 22.5679C40.7747 22.4725 40.8175 22.3503 40.8136 22.2251C40.8097 22.0999 40.7596 21.9806 40.6728 21.8903C40.586 21.8001 40.4687 21.7452 40.3438 21.7364C36.2624 21.7871 27.7777 21.808 24.137 21.8876C23.5909 21.9001 23.545 22.8049 24.1141 22.8307Z" fill="#38A1FF"/>
<path d="M44.6436 38.3071C43.6997 38.3071 36.5233 38.2267 36.015 38.3719C35.842 38.4217 35.7737 38.7016 35.9812 38.7608C36.5233 38.9164 43.6623 38.8376 44.648 38.8376C45.6337 38.8376 46.5904 38.873 47.5555 38.8376C47.8507 38.8267 47.829 38.3321 47.5362 38.3192C46.5759 38.2766 45.6059 38.3071 44.6436 38.3071Z" fill="#38A1FF"/>
<path d="M35.902 42.0644C35.841 42.0825 35.7897 42.1239 35.7591 42.1797C35.7286 42.2354 35.7212 42.3009 35.7387 42.362C35.8215 42.6435 35.4495 42.547 47.6802 42.7509C47.7477 42.744 47.8103 42.7124 47.8557 42.662C47.9012 42.6117 47.9264 42.5463 47.9264 42.4785C47.9264 42.4106 47.9012 42.3452 47.8557 42.2949C47.8103 42.2445 47.7477 42.2129 47.6802 42.206C35.947 42.0166 36.6753 42.0045 35.902 42.0644Z" fill="#38A1FF"/>
<path d="M47.4188 35.0923C47.4843 35.0879 47.5457 35.0594 47.5913 35.0122C47.6368 34.965 47.6631 34.9025 47.6652 34.837C47.6673 34.7714 47.6449 34.7075 47.6024 34.6575C47.5599 34.6076 47.5003 34.5752 47.4353 34.5667C45.69 34.5184 37.5681 34.4509 36.0946 34.7445C35.8533 34.7923 35.9072 35.1438 36.1376 35.1643C37.3839 35.2765 39.2893 34.8579 47.4188 35.0923Z" fill="#38A1FF"/>
<path d="M58.1456 27.9477C58.1673 24.4835 58.3281 20.162 58.0374 16.8008C58.0294 16.7503 58.003 16.7046 57.9633 16.6724C57.9235 16.6403 57.8733 16.624 57.8223 16.6267C57.7713 16.6294 57.723 16.6509 57.6869 16.687C57.6508 16.7232 57.6294 16.7714 57.6268 16.8225C57.5323 18.4351 57.6211 25.928 57.6268 27.9863C57.6276 28.3245 58.1435 28.2863 58.1456 27.9477Z" fill="#38A1FF"/>
<path d="M27.7969 43.9968C28.2952 44.5427 28.8251 45.059 29.3838 45.5431C29.6251 45.7703 29.9967 45.408 29.7538 45.1811C29.233 44.6573 28.6857 44.1607 28.1138 43.6932C27.9397 43.5818 27.6626 43.8098 27.7969 43.9968Z" fill="#38A1FF"/>
<path d="M5.50837 16.8008C5.50837 16.4984 5.03222 16.4433 5.0282 16.7529C4.86975 29.5639 5.08128 44.4649 5.69336 57.2096C5.71025 57.5627 6.25637 57.4762 6.23828 57.1255C5.59161 43.6441 5.48987 30.2934 5.50837 16.8008Z" fill="#38A1FF"/>
<path d="M11.5579 45.3871C11.4228 45.5881 11.7361 45.8439 11.8941 45.6561C12.098 45.4148 13.2804 44.0447 13.2212 43.7499C13.0584 42.9689 11.7888 45.0456 11.5579 45.3871Z" fill="#38A1FF"/>
<path d="M20.4051 38.8882C20.1988 38.85 18.8901 40.0115 18.6259 40.2636C16.1555 38.6482 16.4012 39.0459 16.4318 40.0223C16.4411 40.6902 16.4875 41.3571 16.5709 42.0198C16.6011 42.2293 16.9196 42.1927 16.9329 41.9888C16.9831 41.242 16.887 40.4977 16.875 39.7513C19.0502 41.0784 18.3778 41.0381 20.4091 39.374C20.6504 39.6407 21.7993 40.7587 22.1472 40.7164C22.4287 40.6814 23.3766 39.4078 23.6022 39.1364C23.6022 39.7127 23.6207 41.3575 23.7916 41.8232C23.8801 42.0644 24.1133 41.9792 24.1254 41.7391C24.1551 41.2276 24.0932 40.0151 24.0944 39.4247C24.0944 38.7523 24.0924 38.5802 23.8109 38.178C23.1996 37.3046 21.6513 35.1647 20.7067 34.0033C19.8746 32.9798 19.838 32.9577 19.2541 33.8617C18.3545 35.2568 16.8444 37.9637 16.6136 38.4784C16.5158 38.6952 16.85 38.7973 16.9662 38.6369C17.3531 38.1024 18.229 36.5312 18.6324 35.8399C19.5392 35.8761 20.4474 35.8608 21.3525 35.7941C22.0964 36.6791 22.8073 37.5913 23.4839 38.5287L22.0989 40.2093C21.9103 40.0597 20.6138 38.9268 20.4051 38.8882Z" fill="#38A1FF"/>
<path d="M27.3337 56.8931C25.1729 56.7724 7.57749 56.867 6.89101 56.9735C6.84024 56.9899 6.79634 57.0227 6.76616 57.0667C6.73599 57.1106 6.72124 57.1634 6.72423 57.2167C6.72721 57.2699 6.74777 57.3207 6.78267 57.361C6.81758 57.4014 6.86487 57.429 6.91715 57.4396C13.57 57.4585 20.6306 57.4058 27.2951 57.4131C27.6192 57.4131 27.6747 56.9132 27.3337 56.8931Z" fill="#38A1FF"/>
<path d="M12.4058 31.9929C12.6439 32.2587 13.009 31.9258 12.8112 31.7002C12.331 31.1552 11.3023 29.9178 10.8281 29.5012C10.6403 29.3359 10.3858 29.5945 10.5185 29.7915C10.8595 30.3003 11.9357 31.4685 12.4058 31.9929Z" fill="#38A1FF"/>
<path d="M20.1468 29.6271C20.177 28.5833 20.1152 27.5389 19.9623 26.5059C19.9411 26.4688 19.9096 26.4386 19.8716 26.419C19.8336 26.3994 19.7907 26.3912 19.7481 26.3954C19.7056 26.3997 19.6652 26.4162 19.6318 26.443C19.5984 26.4697 19.5735 26.5056 19.5601 26.5462C19.5275 27.5888 19.5781 28.6323 19.7113 29.6669C19.7234 29.7188 19.7539 29.7645 19.7971 29.7957C19.8403 29.8269 19.8933 29.8414 19.9464 29.8365C19.9995 29.8317 20.049 29.8078 20.0858 29.7693C20.1227 29.7308 20.1443 29.6803 20.1468 29.6271Z" fill="#38A1FF"/>
<path d="M20.4987 45.1972C20.4987 45.531 20.4098 47.7469 20.5297 48.0377C20.5508 48.0743 20.5813 48.1047 20.618 48.1259C20.6546 48.1471 20.6962 48.1582 20.7386 48.1582C20.7809 48.1582 20.8225 48.1471 20.8592 48.1259C20.8958 48.1047 20.9263 48.0743 20.9475 48.0377C21.0726 47.7183 20.9306 45.6368 20.9141 45.1972C20.8924 44.962 20.4987 44.9572 20.4987 45.1972Z" fill="#38A1FF"/>
<path d="M10.4368 37.9279C15.321 28.7423 26.4542 29.7075 30.5485 37.1835C25.7114 44.5658 16.235 45.6834 10.4147 38.5854C10.2329 38.3642 10.0081 38.6469 10.1734 38.8786C15.2904 45.9967 26.2237 45.0677 30.7383 37.8732C30.8854 37.6903 30.9712 37.4659 30.9837 37.2315C30.9962 36.9972 30.9347 36.7649 30.8079 36.5674C25.8433 28.0651 13.4095 29.5945 10.1006 37.7103C10.0021 37.9516 10.319 38.1499 10.4368 37.9279Z" fill="#38A1FF"/>
<path d="M54.9548 28.5984C53.6968 28.8396 52.5873 31.5876 53.9751 32.8741C54.8249 33.6619 58.7382 33.6952 61.1105 33.5943C61.1276 33.8846 61.1899 34.1705 61.2951 34.4416C61.3896 34.6829 61.6727 34.7593 61.6024 34.3242C61.5639 34.0764 61.5463 33.8258 61.5497 33.575C61.9185 33.559 62.2868 33.5322 62.654 33.4946C62.5901 34.0304 62.498 34.5625 62.3781 35.0887C62.3118 35.3771 62.6355 35.4309 62.7453 35.1559C63.0819 34.2859 63.2182 33.3511 63.1438 32.4212C63.0007 30.3715 57.2527 28.1568 54.9548 28.5984ZM55.3509 29.681C54.7722 29.8133 54.6355 30.6924 54.5828 31.1625C54.4923 31.9668 53.9796 31.4038 54.1026 30.6964C54.1967 30.1631 54.6524 29.2945 55.3171 29.3809C55.3556 29.3789 55.3935 29.3916 55.4229 29.4165C55.4524 29.4415 55.4712 29.4767 55.4755 29.515C55.4798 29.5534 55.4693 29.5919 55.4461 29.6227C55.423 29.6536 55.3889 29.6744 55.3509 29.681Z" fill="#191919"/>
<path d="M59.658 36.8738C59.9785 36.3309 60.1989 35.7349 60.3087 35.114C60.8489 35.2119 61.364 35.417 61.8236 35.7173C62.0971 35.8351 62.2008 35.476 62.0649 35.3646C61.5713 34.9623 60.968 34.7181 60.3336 34.6636C60.0409 34.109 57.8153 33.9799 57.4719 34.5651C57.3878 34.5179 57.2948 34.4891 57.1988 34.4804C57.1028 34.4717 57.0061 34.4835 56.9149 34.5148C56.74 34.0346 54.7662 33.9144 54.2744 34.469C53.7077 34.4066 53.4725 34.9298 54.2213 34.925C54.249 35.4448 54.3452 35.9586 54.5072 36.4532C54.7011 36.8497 56.0949 36.8437 56.3724 36.643C56.7026 36.4045 56.8526 35.3634 56.9463 34.9624C57.0823 34.9197 57.2292 34.9283 57.3593 34.9865C57.3564 35.5241 57.4175 36.06 57.5415 36.5831C57.7546 37.007 59.3487 37.239 59.658 36.8738ZM56.22 36.1821C56.1544 36.3402 56.0953 36.378 55.5669 36.3571C54.6741 36.3221 54.8611 36.5155 54.5876 34.7175C55.2165 34.5039 55.8983 34.5039 56.5272 34.7175C56.5186 35.2208 56.4143 35.7178 56.22 36.1821ZM57.9006 36.3643C57.8009 35.87 57.7654 35.3649 57.7948 34.8615C58.4845 34.6153 59.2416 34.6384 59.915 34.9262C59.8773 35.3217 59.7758 35.7085 59.6146 36.0715C59.3861 36.5714 59.3483 36.637 58.6281 36.5783C58.2822 36.5501 57.9493 36.4733 57.9006 36.3647V36.3643Z" fill="#191919"/>
<path d="M58.2417 36.043C58.3169 36.3141 58.8449 36.3458 58.7218 35.5629C58.6514 35.1173 58.0233 35.2572 58.2417 36.043Z" fill="#191919"/>
<path d="M62.8028 35.7189C61.425 35.8343 60.745 38.3582 60.013 38.5999C59.5015 38.7692 58.3542 38.0333 57.1948 37.954C56.0353 37.8748 55.375 38.3646 55.1586 38.2613C54.9423 38.1579 55.0915 37.2531 55.0915 37.042C55.0915 36.8308 54.9765 36.7154 54.7722 37.1811C54.5679 37.6468 52.5756 42.1171 53.4423 43.32C54.6809 45.0388 59.7356 45.4027 61.3048 44.2204C63.2721 42.7381 61.5979 37.9774 62.0825 36.7371C62.1736 36.5598 62.319 36.4163 62.4973 36.3273C62.6757 36.2383 62.8778 36.2086 63.0742 36.2425C63.737 36.5296 63.5548 38.4945 62.4955 38.1869C62.2293 38.1101 62.169 38.4447 62.4151 38.5738C63.1346 38.9522 63.8407 38.3622 63.9349 37.3733C64.0052 36.6245 63.7511 35.6397 62.8028 35.7189ZM57.317 40.1828C56.3185 40.1828 56.1166 39.7867 56.0325 39.1372C56.8969 39.323 57.7924 39.3074 58.6497 39.0917C58.5585 39.6853 58.4318 40.1844 57.317 40.1844V40.1828Z" fill="#191919"/>
<path d="M56.8392 35.9638C56.6544 36.3901 56.5159 36.835 56.4262 37.2909C56.3269 37.8318 57.0464 37.8334 57.4517 37.7711C57.693 37.7341 57.7373 37.459 57.473 37.4397C57.2788 37.4252 56.8972 37.4156 56.861 37.3484C56.8942 36.8997 56.9805 36.4565 57.1179 36.0281C57.1738 35.8512 56.9157 35.782 56.8392 35.9638Z" fill="#191919"/>
<path d="M55.6972 36.0615C55.9208 35.9763 55.9385 35.3742 55.7474 35.262C55.2653 34.9757 55.1981 36.2497 55.6972 36.0615Z" fill="#191919"/>
<path d="M59.6315 14.8801C41.0326 14.8945 21.2885 14.8515 2.97284 15.0075C2.66077 15.01 2.65353 15.8119 2.95354 15.8139C21.4948 15.9301 41.023 15.7853 59.6121 15.7708C59.9459 15.7704 59.9532 14.8801 59.6315 14.8801Z" fill="#191919"/>
<path d="M38.442 57.6909C35.265 57.5019 30.3438 56.8802 27.3791 55.6074C26.9979 55.4433 25.1146 55.751 22.9763 54.7629C22.7528 54.6599 22.6639 54.9748 22.873 55.1039C23.9656 55.7771 25.3458 55.9565 26.6062 55.9971C26.9449 55.9883 27.2806 56.0633 27.5834 56.2154C31.0766 57.4682 34.7553 58.1255 38.4661 58.1599C38.7709 58.1643 38.7613 57.7102 38.442 57.6909Z" fill="#191919"/>
<path d="M74.5623 56.7789C74.5003 56.4403 74.0439 56.5597 74.101 56.8963C74.2975 58.1046 74.2196 59.3416 73.873 60.5157C73.0522 63.3762 70.6369 62.9173 68.2191 62.806C65.6815 62.6893 62.1868 62.446 59.9943 62.3451C59.9458 62.3387 59.8968 62.3514 59.8577 62.3806C59.8185 62.4098 59.7923 62.4531 59.7846 62.5013C59.7769 62.5495 59.7883 62.5988 59.8164 62.6388C59.8445 62.6787 59.8871 62.7061 59.9351 62.7151C62.0444 63.0501 66.5502 63.2483 68.3056 63.3316C70.7064 63.4458 73.3848 63.7659 74.2788 60.9862C74.7186 59.6286 74.816 58.1833 74.5623 56.7789Z" fill="#191919"/>
<path d="M58.8247 58.2121C61.9316 57.718 65.0616 57.3807 68.2025 57.2015C68.2532 57.1969 68.3003 57.1729 68.3337 57.1345C68.3672 57.096 68.3845 57.0461 68.382 56.9952C68.3795 56.9443 68.3574 56.8963 68.3203 56.8613C68.2833 56.8263 68.2341 56.807 68.1832 56.8074C65.0208 56.9372 61.8691 57.2579 58.7454 57.7678C58.6865 57.7784 58.6342 57.8121 58.6001 57.8613C58.566 57.9105 58.5528 57.9712 58.5635 58.0302C58.5741 58.0891 58.6078 58.1414 58.657 58.1755C58.7062 58.2096 58.7669 58.2228 58.8259 58.2121H58.8247Z" fill="#191919"/>
<path d="M25.7467 54.7335C25.7802 54.7333 25.8132 54.7263 25.8439 54.713C25.8746 54.6997 25.9023 54.6803 25.9254 54.6561C25.9484 54.6318 25.9663 54.6032 25.9781 54.5718C25.9898 54.5405 25.9951 54.5071 25.9936 54.4737C25.9922 54.4403 25.984 54.4075 25.9696 54.3773C25.9552 54.3471 25.9348 54.3202 25.9097 54.298C25.8847 54.2759 25.8554 54.259 25.8236 54.2484C25.7919 54.2378 25.7584 54.2338 25.725 54.2364C24.2322 54.2843 23.479 53.8604 22.4937 53.1607C22.3377 53.0501 22.172 53.2451 22.2926 53.402C22.994 54.3289 24.6304 54.7769 25.7467 54.7335Z" fill="#191919"/>
<path d="M28.2301 52.1879C28.4119 52.5032 28.7931 52.5458 29.1325 52.6226C31.1373 53.0783 35.7246 52.9262 37.8524 52.9013C38.1549 52.8977 38.0937 52.5068 37.7829 52.5096C36.2293 52.5253 31.5406 52.5695 29.2142 52.14C28.7847 52.0596 28.8068 52.1231 28.5876 51.7781C28.1734 51.1242 27.5557 50.3243 26.8065 50.311C26.5829 50.307 26.5652 50.5226 26.7558 50.6183C27.4177 50.9503 27.9401 51.5065 28.2301 52.1879Z" fill="#191919"/>
<path d="M26.903 52.2771C25.8646 51.9723 24.3971 51.4833 23.59 50.4405C23.3487 50.1276 23.1436 50.3709 23.2635 50.6231C23.7662 51.6815 25.6064 52.6338 26.6629 52.6741C27.2472 52.6986 27.0847 52.3302 26.903 52.2771Z" fill="#191919"/>
<path d="M22.6977 51.4563C22.6645 51.416 22.6172 51.3899 22.5653 51.3834C22.5135 51.3769 22.4612 51.3904 22.419 51.4213C22.3769 51.4522 22.3482 51.4981 22.3389 51.5495C22.3295 51.6009 22.3402 51.6539 22.3687 51.6976C22.7521 52.2476 23.2499 52.7081 23.828 53.0475C24.4061 53.3868 25.0508 53.5971 25.7179 53.6638C25.7704 53.6656 25.8221 53.6502 25.8651 53.62C25.9081 53.5897 25.9401 53.5462 25.9561 53.4962C25.9721 53.4461 25.9713 53.3922 25.9539 53.3426C25.9364 53.293 25.9033 53.2504 25.8594 53.2214C25.5067 53.0694 24.0075 52.9717 22.6977 51.4563Z" fill="#191919"/>
<path d="M68.9948 63.7602C68.2746 63.6665 59.9198 63.8515 59.533 63.6931C59.1461 63.5346 57.145 52.138 56.6222 51.3892C56.0994 50.6404 39.6316 51.1153 38.8828 51.5476C38.134 51.98 40.6068 64.9977 41.2474 65.2611C41.8189 65.4955 68.1362 65.1698 68.996 65.1243C69.8558 65.0789 69.7151 63.8539 68.9948 63.7602ZM48.2469 60.015C46.0001 60.202 45.2959 56.5162 47.5412 56.1499C48.6069 55.9758 49.5459 56.9208 49.745 58.0846C49.7863 58.3115 49.7794 58.5445 49.7247 58.7685C49.67 58.9924 49.5686 59.2024 49.4272 59.3845C49.2859 59.5667 49.1077 59.717 48.9043 59.8256C48.7009 59.9342 48.4769 59.9988 48.2469 60.015Z" fill="#191919"/>
</svg>
